<svg width="20" height="21" viewBox="0 0 20 21" fill="none" xmlns="http://www.w3.org/2000/svg">
<path d="M12.5 11.3333L9.16667 14.6667L7.5 13" stroke="white" stroke-width="2" stroke-linecap="round" stroke-linejoin="round"/>
<path d="M15 18H4.99999C4.53975 18 4.16666 17.6269 4.16666 17.1667L4.16666 3.83333C4.16666 3.3731 4.53975 3 4.99999 3L11.3026 3C11.5347 3 11.7563 3.09683 11.914 3.26716L15.6115 7.26038C15.7541 7.41442 15.8333 7.61662 15.8333 7.82656L15.8333 17.1667C15.8333 17.6269 15.4602 18 15 18Z" stroke="white" stroke-width="2" stroke-linecap="round" stroke-linejoin="round"/>
<path d="M15.8333 8L11.6667 8C11.2064 8 10.8333 7.6269 10.8333 7.16667L10.8333 3" stroke="white" stroke-width="2" stroke-linecap="round" stroke-linejoin="round"/>
</svg>
