<svg width="20" height="21" viewBox="0 0 20 21" fill="none" xmlns="http://www.w3.org/2000/svg">
<path d="M8.96191 3.38233C9.5601 2.87256 10.4399 2.87256 11.0381 3.38233L12.0556 4.24941C12.3119 4.46786 12.6306 4.59987 12.9663 4.62666L14.2989 4.73301C15.0824 4.79552 15.7045 5.41764 15.767 6.20109L15.8733 7.53367C15.9001 7.86939 16.0321 8.1881 16.2506 8.44444L17.1177 9.46191C17.6274 10.0601 17.6274 10.9399 17.1177 11.5381L16.2506 12.5556C16.0321 12.8119 15.9001 13.1306 15.8733 13.4663L15.767 14.7989C15.7045 15.5824 15.0824 16.2045 14.2989 16.267L12.9663 16.3733C12.6306 16.4001 12.3119 16.5321 12.0556 16.7506L11.0381 17.6177C10.4399 18.1274 9.5601 18.1274 8.96191 17.6177L7.94444 16.7506C7.6881 16.5321 7.36939 16.4001 7.03367 16.3733L5.70109 16.267C4.91764 16.2045 4.29552 15.5824 4.23301 14.7989L4.12666 13.4663C4.09987 13.1306 3.96786 12.8119 3.74941 12.5556L2.88233 11.5381C2.37256 10.9399 2.37256 10.0601 2.88233 9.46191L3.74941 8.44444C3.96786 8.1881 4.09987 7.86939 4.12666 7.53367L4.23301 6.20109C4.29552 5.41764 4.91764 4.79552 5.70109 4.73301L7.03367 4.62666C7.36939 4.59987 7.6881 4.46786 7.94444 4.24941L8.96191 3.38233Z" stroke="#FFC350" stroke-width="2" stroke-linecap="round" stroke-linejoin="round"/>
<path d="M12.5 8.83334L9.16667 12.1667L7.5 10.5" stroke="#FFC350" stroke-width="2" stroke-linecap="round" stroke-linejoin="round"/>
</svg>
